ffmpeg version 4.2.7-0ubuntu0.1 Copyright (c) 2000-2022 the FFmpeg developers
  built with gcc 9 (Ubuntu 9.4.0-1ubuntu1~20.04.1)
  configuration: --prefix=/usr --extra-version=0ubuntu0.1 --toolchain=hardened --libdir=/usr/lib/x86_64-linux-gnu --incdir=/usr/include/x86_64-linux-gnu --arch=amd64 --enable-gpl --disable-stripping --enable-avresample --disable-filter=resample --enable-avisynth --enable-gnutls --enable-ladspa --enable-libaom --enable-libass --enable-libbluray --enable-libbs2b --enable-libcaca --enable-libcdio --enable-libcodec2 --enable-libflite --enable-libfontconfig --enable-libfreetype --enable-libfribidi --enable-libgme --enable-libgsm --enable-libjack --enable-libmp3lame --enable-libmysofa --enable-libopenjpeg --enable-libopenmpt --enable-libopus --enable-libpulse --enable-librsvg --enable-librubberband --enable-libshine --enable-libsnappy --enable-libsoxr --enable-libspeex --enable-libssh --enable-libtheora --enable-libtwolame --enable-libvidstab --enable-libvorbis --enable-libvpx --enable-libwavpack --enable-libwebp --enable-libx265 --enable-libxml2 --enable-libxvid --enable-libzmq --enable-libzvbi --enable-lv2 --enable-omx --enable-openal --enable-opencl --enable-opengl --enable-sdl2 --enable-libdc1394 --enable-libdrm --enable-libiec61883 --enable-nvenc --enable-chromaprint --enable-frei0r --enable-libx264 --enable-shared
  libavutil      56. 31.100 / 56. 31.100
  libavcodec     58. 54.100 / 58. 54.100
  libavformat    58. 29.100 / 58. 29.100
  libavdevice    58.  8.100 / 58.  8.100
  libavfilter     7. 57.100 /  7. 57.100
  libavresample   4.  0.  0 /  4.  0.  0
  libswscale      5.  5.100 /  5.  5.100
  libswresample   3.  5.100 /  3.  5.100
  libpostproc    55.  5.100 / 55.  5.100
Routing option strict to both codec and muxer layer
[h264 @ 0x55b2abae4d80] Reinit context to 848x480, pix_fmt: yuv420p
Input #0, mov,mp4,m4a,3gp,3g2,mj2, from '/var/www/html/project/media/video/original/COEMFC-VID-20240921-WA0022.mp4':
  Metadata:
    major_brand     : mp42
    minor_version   : 0
    compatible_brands: mp42isom
  Duration: 00:00:18.88, start: 0.000000, bitrate: 1449 kb/s
    Stream #0:0(und): Video: h264 (High), 1 reference frame (avc1 / 0x31637661), yuv420p(tv, bt709, left), 848x478 (848x480), 1253 kb/s, 29.88 fps, 29.83 tbr, 30k tbn, 60k tbc (default)
    Stream #0:1(und): Audio: aac (LC) (mp4a / 0x6134706D), 48000 Hz, stereo, fltp, 191 kb/s (default)
Input #1, png_pipe, from '/var/www/html/project/static/images/templates/logo.png':
  Duration: N/A, bitrate: N/A
    Stream #1:0: Video: png, 1 reference frame, rgba(pc), 1920x1080 [SAR 2835:2835 DAR 16:9], 25 tbr, 25 tbn, 25 tbc
[Parsed_scale_0 @ 0x55b2abc65ec0] w:1280 h:720 flags:'bilinear' interl:0
[Parsed_scale_2 @ 0x55b2abaeba00] w:1280 h:720 flags:'bilinear' interl:0
Stream mapping:
  Stream #0:0 (h264) -> scale (graph 0)
  Stream #1:0 (png) -> scale (graph 0)
  overlay (graph 0) -> Stream #0:0 (libx264)
  Stream #0:1 -> #0:1 (aac (native) -> aac (native))
Press [q] to stop, [?] for help
[h264 @ 0x55b2abb179c0] Reinit context to 848x480, pix_fmt: yuv420p
[graph_1_in_0_1 @ 0x55b2abc661c0] tb:1/48000 samplefmt:fltp samplerate:48000 chlayout:0x3
[Parsed_scale_0 @ 0x55b2ac167640] w:1280 h:720 flags:'bilinear' interl:0
[Parsed_scale_2 @ 0x55b2ac1ea640] w:1280 h:720 flags:'bilinear' interl:0
[graph 0 input from stream 0:0 @ 0x55b2ac1ecb00] w:848 h:478 pixfmt:yuv420p tb:1/30000 fr:179/6 sar:0/1 sws_param:flags=2
[graph 0 input from stream 1:0 @ 0x55b2ac1edb40] w:1920 h:1080 pixfmt:rgba tb:1/25 fr:25/1 sar:2835/2835 sws_param:flags=2
[Parsed_scale_0 @ 0x55b2ac167640] w:848 h:478 fmt:yuv420p sar:0/1 -> w:1280 h:720 fmt:yuv420p sar:0/1 flags:0x2
[Parsed_setsar_1 @ 0x55b2ac1e9c80] w:1280 h:720 sar:0/1 dar:16/9 -> sar:1/1 dar:16/9
[Parsed_scale_2 @ 0x55b2ac1ea640] w:1920 h:1080 fmt:rgba sar:2835/2835 -> w:1280 h:720 fmt:yuva420p sar:1/1 flags:0x2
[Parsed_setsar_3 @ 0x55b2ac1eb0c0] w:1280 h:720 sar:1/1 dar:16/9 -> sar:1/1 dar:16/9
[Parsed_overlay_4 @ 0x55b2ac1ebcc0] main w:1280 h:720 fmt:yuv420p overlay w:1280 h:720 fmt:yuva420p
[Parsed_overlay_4 @ 0x55b2ac1ebcc0] [framesync @ 0x55b2ac1ebe28] Selected 1/30000 time base
[Parsed_overlay_4 @ 0x55b2ac1ebcc0] [framesync @ 0x55b2ac1ebe28] Sync level 2
[libx264 @ 0x55b2abb393c0] using SAR=1/1
[libx264 @ 0x55b2abb393c0] using cpu capabilities: MMX2 SSE2Fast SSSE3 SSE4.2 AVX FMA3 BMI2 AVX2
[libx264 @ 0x55b2abb393c0] profile High, level 3.1
[libx264 @ 0x55b2abb393c0] 264 - core 155 r2917 0a84d98 - H.264/MPEG-4 AVC codec - Copyleft 2003-2018 - http://www.videolan.org/x264.html - options: cabac=1 ref=1 deblock=1:0:0 analyse=0x3:0x113 me=hex subme=2 psy=1 psy_rd=1.00:0.00 mixed_ref=0 me_range=16 chroma_me=1 trellis=0 8x8dct=1 cqm=0 deadzone=21,11 fast_pskip=1 chroma_qp_offset=0 threads=22 lookahead_threads=5 sliced_threads=0 nr=0 decimate=1 interlaced=0 bluray_compat=0 constrained_intra=0 bframes=3 b_pyramid=2 b_adapt=1 b_bias=0 direct=1 weightb=1 open_gop=0 weightp=1 keyint=250 keyint_min=25 scenecut=40 intra_refresh=0 rc_lookahead=10 rc=crf mbtree=1 crf=18.0 qcomp=0.60 qpmin=0 qpmax=69 qpstep=4 ip_ratio=1.40 aq=1:1.00
Output #0, mp4, to '/var/www/html/project/media/video/watermarks/COEMFC-VID-20240921-WA0022.mp4':
  Metadata:
    major_brand     : mp42
    minor_version   : 0
    compatible_brands: mp42isom
    encoder         : Lavf58.29.100
    Stream #0:0: Video: h264 (libx264), 1 reference frame (avc1 / 0x31637661), yuv420p, 1280x720 [SAR 1:1 DAR 16:9], q=-1--1, 29.83 fps, 11456 tbn, 29.83 tbc (default)
    Metadata:
      encoder         : Lavc58.54.100 libx264
    Side data:
      cpb: bitrate max/min/avg: 0/0/0 buffer size: 0 vbv_delay: -1
    Stream #0:1(und): Audio: aac (LC) (mp4a / 0x6134706D), 48000 Hz, stereo, fltp, delay 1024, 128 kb/s (default)
    Metadata:
      encoder         : Lavc58.54.100 aac
Past duration 0.600151 too large
Past duration 0.601738 too large
Past duration 0.603310 too large
Past duration 0.604881 too large
Past duration 0.606468 too large
Past duration 0.608040 too large
Past duration 0.609627 too large
Past duration 0.611198 too large
Past duration 0.611778 too large
Past duration 0.612358 too large
Past duration 0.612953 too large
Past duration 0.614525 too large
Past duration 0.616096 too large
Past duration 0.617683 too large
Past duration 0.619255 too large
Past duration 0.620842 too large
Past duration 0.622414 too large
Past duration 0.623985 too large
Past duration 0.625572 too large
Past duration 0.627144 too large
Past duration 0.628731 too large
Past duration 0.630302 too large
Past duration 0.631874 too large
Past duration 0.633461 too large
Past duration 0.635033 too large
Past duration 0.636620 too large
Past duration 0.638191 too large
Past duration 0.639763 too large
Past duration 0.641350 too large
Past duration 0.642921 too large
Past duration 0.644508 too large
Past duration 0.645088 too large
Past duration 0.645668 too large
Past duration 0.647255 too large
Past duration 0.654793 too large
Past duration 0.650398 too large
Past duration 0.651985 too large
Past duration 0.653557 too large
Past duration 0.655144 too large
Past duration 0.656715 too large
Past duration 0.658287 too large
Past duration 0.659874 too large
Past duration 0.661446 too large
Past duration 0.663033 too large
Past duration 0.664604 too large
Past duration 0.666176 too large
Past duration 0.667763 too large
Past duration 0.669334 too large
Past duration 0.670921 too large
Past duration 0.672493 too large
Past duration 0.674065 too large
Past duration 0.675652 too large
Past duration 0.677223 too large
Past duration 0.678810 too large
Past duration 0.680382 too large
Past duration 0.681953 too large
Past duration 0.683540 too large
Past duration 0.685112 too large
Past duration 0.686699 too large
Past duration 0.687279 too large
Past duration 0.688850 too large
Past duration 0.690437 too large
Past duration 0.692009 too large
Past duration 0.693581 too large
Past duration 0.695168 too large
Past duration 0.696739 too large
Past duration 0.698326 too large
Past duration 0.699898 too large
Past duration 0.701469 too large
Past duration 0.703056 too large
Past duration 0.704628 too large
Past duration 0.706215 too large
Past duration 0.707787 too large
Past duration 0.709358 too large
Past duration 0.710945 too large
Past duration 0.712517 too large
Past duration 0.714104 too large
Past duration 0.715675 too large
Past duration 0.717247 too large
Past duration 0.718834 too large
Past duration 0.720406 too large
Past duration 0.721992 too large
Past duration 0.723564 too large
Past duration 0.725136 too large
Past duration 0.726723 too large
Past duration 0.728294 too large
Past duration 0.729881 too large
Past duration 0.731453 too large
Past duration 0.733025 too large
Past duration 0.734612 too large
Past duration 0.736183 too large
Past duration 0.737770 too large
Past duration 0.739342 too large
Past duration 0.740913 too large
Past duration 0.742500 too large
Past duration 0.744072 too large
Past duration 0.745659 too large
Past duration 0.747231 too large
Past duration 0.748802 too large
Past duration 0.750389 too large
Past duration 0.751961 too large
Past duration 0.753548 too large
Past duration 0.755119 too large
Past duration 0.756691 too large
Past duration 0.758278 too large
Past duration 0.759850 too large
Past duration 0.761436 too large
Past duration 0.763008 too large
Past duration 0.764580 too large
Past duration 0.766167 too large
Past duration 0.767738 too large
Past duration 0.769325 too large
Past duration 0.770897 too large
Past duration 0.772469 too large
Past duration 0.774055 too large
Past duration 0.775627 too large
Past duration 0.777214 too large
Past duration 0.778786 too large
Past duration 0.780357 too large
Past duration 0.781944 too large
Past duration 0.783516 too large
Past duration 0.785103 too large
Past duration 0.785683 too large
Past duration 0.787254 too large
Past duration 0.790825 too large
[Parsed_overlay_4 @ 0x55b2ac1ebcc0] [framesync @ 0x55b2ac1ebe28] Sync level 0
No more output streams to write to, finishing.
frame=  564 fps= 92 q=-1.0 Lsize=   10660kB time=00:00:18.85 bitrate=4631.0kbits/s speed=3.07x    
[AVIOContext @ 0x55b2abae30c0] Statistics: 0 seeks, 12 writeouts
video:10340kB audio:298kB subtitle:0kB other streams:0kB global headers:0kB muxing overhead: 0.202831%
Input file #0 (/var/www/html/project/media/video/original/COEMFC-VID-20240921-WA0022.mp4):
  Input stream #0:0 (video): 564 packets read (2957966 bytes); 564 frames decoded; 
  Input stream #0:1 (audio): 883 packets read (452178 bytes); 883 frames decoded (904192 samples); 
  Total: 1447 packets (3410144 bytes) demuxed
Input file #1 (/var/www/html/project/static/images/templates/logo.png):
  Input stream #1:0 (video): 1 packets read (111578 bytes); 1 frames decoded; 
  Total: 1 packets (111578 bytes) demuxed
Output file #0 (/var/www/html/project/media/video/watermarks/COEMFC-VID-20240921-WA0022.mp4):
  Output stream #0:0 (video): 564 frames encoded; 564 packets muxed (10588521 bytes); 
  Output stream #0:1 (audio): 883 frames encoded (904192 samples); 884 packets muxed (305301 bytes); 
  Total: 1448 packets (10893822 bytes) muxed
[AVIOContext @ 0x55b2abc6c0c0] Statistics: 2 seeks, 45 writeouts
[libx264 @ 0x55b2abb393c0] frame I:3     Avg QP:18.85  size:105165
[libx264 @ 0x55b2abb393c0] frame P:161   Avg QP:20.23  size: 41568
[libx264 @ 0x55b2abb393c0] frame B:400   Avg QP:23.02  size:  8950
[libx264 @ 0x55b2abb393c0] consecutive B-frames:  5.0%  0.7%  2.1% 92.2%
[libx264 @ 0x55b2abb393c0] mb I  I16..4:  2.7% 15.1% 82.2%
[libx264 @ 0x55b2abb393c0] mb P  I16..4:  2.3%  7.0%  8.6%  P16..4: 34.8% 26.4% 17.7%  0.0%  0.0%    skip: 3.2%
[libx264 @ 0x55b2abb393c0] mb B  I16..4:  0.5%  0.4%  0.1%  B16..8: 27.3%  9.7%  1.0%  direct:14.5%  skip:46.6%  L0:30.3% L1:45.6% BI:24.1%
[libx264 @ 0x55b2abb393c0] 8x8 transform intra:37.3% inter:40.3%
[libx264 @ 0x55b2abb393c0] coded y,uvDC,uvAC intra: 77.4% 62.1% 17.9% inter: 21.5% 15.6% 0.3%
[libx264 @ 0x55b2abb393c0] i16 v,h,dc,p: 27% 36% 25% 12%
[libx264 @ 0x55b2abb393c0] i8 v,h,dc,ddl,ddr,vr,hd,vl,hu: 19% 21% 19%  6%  6%  9%  5%  6%  9%
[libx264 @ 0x55b2abb393c0] i4 v,h,dc,ddl,ddr,vr,hd,vl,hu: 18% 18%  9%  7% 10% 11%  8%  9% 10%
[libx264 @ 0x55b2abb393c0] i8c dc,h,v,p: 51% 23% 18%  7%
[libx264 @ 0x55b2abb393c0] Weighted P-Frames: Y:3.7% UV:0.0%
[libx264 @ 0x55b2abb393c0] kb/s:4480.43
[aac @ 0x55b2abb11fc0] Qavg: 130.152
[AVIOContext @ 0x55b2abaec040] Statistics: 3419454 bytes read, 0 seeks
[AVIOContext @ 0x55b2abaf4dc0] Statistics: 111578 bytes read, 0 seeks
